<?xml version="1.0" standalone="no"?>
<!DOCTYPE svg PUBLIC "-//W3C//DTD SVG 1.1//EN" "http://www.w3.org/Graphics/SVG/1.1/DTD/svg11.dtd" >
<!--
2013-9-30: Created.
-->
<svg>
<metadata>
Created by iconfont
</metadata>
<defs>

<font id="iconfont" horiz-adv-x="1024" >
  <font-face
    font-family="iconfont"
    font-weight="500"
    font-stretch="normal"
    units-per-em="1024"
    ascent="896"
    descent="-128"
  />
    <missing-glyph />
    
    <glyph glyph-name="caret-down" unicode="&#59038;" d="M119.4 637.1c-45.7 0-74.9-61-39.9-96l393.2-393.2c22.6-22.6 56.1-22.6 78.6 0l393.2 393.2c34.1 34.1 7.5 96-39.3 96H119.4z"  horiz-adv-x="1024" />

    
    <glyph glyph-name="caret-up" unicode="&#59039;" d="M119.4 130.9c-45.7 0-74.9 61-39.9 96l393.2 393.2c22.6 22.6 56.1 22.6 78.6 0l393.2-393.2c34.1-34.1 7.5-96-39.3-96H119.4z"  horiz-adv-x="1024" />

    
    <glyph glyph-name="caret-left" unicode="&#59040;" d="M765.1 776.6c0 45.7-61 74.9-96 39.9L275.8 423.3c-22.6-22.6-22.6-56.1 0-78.6L669-48.5c34.1-34.1 96-7.5 96 39.3V776.6h0.1z"  horiz-adv-x="1024" />

    
    <glyph glyph-name="caret-right" unicode="&#59041;" d="M258.9-8.6c0-45.7 61-74.9 96-39.9l393.2 393.2c22.6 22.6 22.6 56.1 0 78.6L354.9 816.6c-34.1 34.1-96 7.5-96-39.3v-785.9z"  horiz-adv-x="1024" />

    
    <glyph glyph-name="ellipsis-fill" unicode="&#58912;" d="M512 777.397116m-118.602884 0a118.602884 118.602884 0 1 1 237.205768 0 118.602884 118.602884 0 1 1-237.205768 0ZM512 384.525065m-118.602884 0a118.602884 118.602884 0 1 1 237.205768 0 118.602884 118.602884 0 1 1-237.205768 0ZM512-9.397115999999983m-118.602884 0a118.602884 118.602884 0 1 1 237.205768 0 118.602884 118.602884 0 1 1-237.205768 0Z"  horiz-adv-x="1024" />

    
    <glyph glyph-name="home-fill" unicode="&#58926;" d="M64 832h384v-448H64V832z m512 0h384v-256H576V832z m0-384h384v-512H576V448z m-512-192h384v-320H64v320z"  horiz-adv-x="1024" />

    
    <glyph glyph-name="gis-fill" unicode="&#58927;" d="M461.102275 129.86699099999998s281.382184 241.152978 281.382184 491.840944C740.172947 773.04532 614.806737 896 461.102275 896S179.708977 773.04532 179.708977 621.707935c0-260.111825 281.393297-491.840945 281.393298-491.840944zM307.397812 614.6067029999999a153.704463 153.704463 0 1 0 153.704463-153.69335c-85.12589 0-153.704463 70.934537-153.704463 153.69335z m0 0M683.374197 278.83729800000003c-18.914395-23.604098-35.439486-47.2971-54.331655-66.211495 196.267408-11.824275 238.830352-52.020142 248.28755-73.346067-9.457197-23.64855-141.880188-80.402848-404.347977-80.402848-262.478903-2.367078-394.89078 56.754298-401.992013 78.03577 7.101233 18.892169 37.839903 56.754298 217.54888 70.934538-16.55843 18.892169-35.472825 42.562945-54.38722 66.211495C87.492968 257.555826 0.044452 222.08300099999997 0.044452 139.32418800000005c0-120.598715 297.940615-151.337385 475.293628-151.337385s475.238062 33.105748 475.238062 151.337385c0 87.492968-108.77444 125.321757-267.201945 139.51311z m0 0"  horiz-adv-x="1177" />

    
    <glyph glyph-name="view-fill" unicode="&#58929;" d="M192 0v128h832v-128H192z m0 448h832v-128H192V448z m0 320h832v-128H192V768zM0 128h128v-128H0v128z m0 320h128v-128H0V448z m0 320h128v-128H0V768z"  horiz-adv-x="1024" />

    
    <glyph glyph-name="favorites-bell" unicode="&#58930;" d="M1024 288v-320H0v832h324.16l186.368-128H1024v-384z m-128-192v192H448l-109.696-192H896z m0 448H512l-192 128H128v-576h73.152L384 416h512v128z"  horiz-adv-x="1024" />

    
    <glyph glyph-name="share-fill" unicode="&#58931;" d="M672 864A160 160 0 1 0 512 704 160 160 0 0 0 672 864z m-512-320A160 160 0 1 0 0 384a160 160 0 0 0 160 160z m704-320A160 160 0 1 0 704 64a160 160 0 0 0 160 160zM145.792 325.376l-35.52 53.248 576 384 35.52-53.248z m-32 62.016l28.608 57.216 768-384-28.608-57.216z"  horiz-adv-x="1024" />

    
    <glyph glyph-name="setup-fill" unicode="&#58932;" d="M0 768h1024v-128H0V768z m0-640h1024v-128H0v128z m0 320h1024v-128H0V448z m768 384a128 128 0 1 0-128-128 128 128 0 0 0 128 128zM256 512a128 128 0 1 0-128-128 128 128 0 0 0 128 128z m320-320a128 128 0 1 0-128-128 128 128 0 0 0 128 128z"  horiz-adv-x="1024" />

    
    <glyph glyph-name="packup-fill" unicode="&#58933;" d="M0 832h1024v-128H0V832z m0-768h1024v-128H0v128z m0 384h448v-128H0V448z m1008.448-271.552L576 384l432.448 207.552v-415.104z"  horiz-adv-x="1024" />

    
    <glyph glyph-name="unfold-fill" unicode="&#58934;" d="M0 832h1024v-128H0V832z m0-768h1024v-128H0v128z m0 384h448v-128H0V448z m575.488-319.488L1024 352 575.552 575.488v-446.976z"  horiz-adv-x="1024" />

    
    <glyph glyph-name="adddirectory-b" unicode="&#58935;" d="M128-64v64h768V768H192v-256H128V832h832v-896H128zM320 640h448v-64H320V640z m448-192H448V512h320v-64zM192 448h128v-128h128v-128H320v-128H192v128H64V320h128V448z"  horiz-adv-x="1024" />

    
    <glyph glyph-name="editor-fill" unicode="&#58936;" d="M793.792 531.008l-135.808 135.808 90.56 90.496 135.744-135.744z m-452.544-452.544L205.44 214.27200000000005l407.296 407.296 135.808-135.808z m-202.88-68.672l21.824 159.232 135.808-135.808z"  horiz-adv-x="1024" />

    
    <glyph glyph-name="delete-bell" unicode="&#58937;" d="M128 576V704h256V832h256v-128h256v-128H128z m640-640H256L192 512h640z m0 512h-128v-448h76.8zM384 448H256l51.2-448H384V448z m64-448h128V448H448v-448z"  horiz-adv-x="1024" />

    
    <glyph glyph-name="addfiles-fill" unicode="&#58938;" d="M64 0V768h294.4l113.92-128H960v-640H64z m832 576H128v-512h768V576zM448 512h128v-128h128v-128H576v-128H448v128H320V384h128V512z"  horiz-adv-x="1024" />

    
    <glyph glyph-name="folder-fill" unicode="&#58940;" d="M60.235294 896h360.58353l89.856-75.294118H1234.823529a60.235294 60.235294 0 0 0 60.235295-60.235294v-828.235294a60.235294 60.235294 0 0 0-60.235295-60.235294H60.235294a60.235294 60.235294 0 0 0-60.235294 60.235294V835.764706a60.235294 60.235294 0 0 0 60.235294 60.235294zM0 700.2352940000001h1295.058824v-768a60.235294 60.235294 0 0 0-60.235295-60.235294H60.235294a60.235294 60.235294 0 0 0-60.235294 60.235294V700.2352940000001z"  horiz-adv-x="1295" />

    
    <glyph glyph-name="datadesign-fill" unicode="&#58944;" d="M832 0V576h192v-576h-192zM0 768h1024v-128H0V768z m768-768H0V576h768v-576z"  horiz-adv-x="1024" />

    
    <glyph glyph-name="datamining-fill" unicode="&#58945;" d="M960 512v-384s-190.656-256-448-256c-254.656 0-448 256-448 256V512h384V645.12A709.696 709.696 0 0 0 256 704V896h512v-192a733.376 733.376 0 0 0-192-58.496V512h384zM384 320H256v-256h128V320z m256-256h128v192h-128v-192z m-192 0h128V384H448v-320z"  horiz-adv-x="1024" />

    
    <glyph glyph-name="dataassets-fill" unicode="&#58946;" d="M576 448V896a448 448 0 0 0 448-448H576z m-128-576A448 448 0 0 0 448 768v-448h448a448 448 0 0 0-448-448z"  horiz-adv-x="1024" />

    
    <glyph glyph-name="event-fill" unicode="&#58947;" d="M64-96v896h128v-192h640v192h128v-896H64z m192 192h256v128H256v-128z m448 384H256v-128h448v128z m-384 384h384v-128H320v128z"  horiz-adv-x="1024" />

    
    <glyph glyph-name="datamonitoring-fill" unicode="&#58948;" d="M0 96V864h1024v-768H0z m896 128v192h-192v37.504L625.92 531.2 384 289.6l-23.424 23.424-14.08-14.016L229.504 416H128v-192h768z m-768 512v-256h128l113.92-113.92 240.32 240.32 14.08-14.08L640 608l128-128h128v256H128z m640-832H256v128h512v-128z"  horiz-adv-x="1024" />

    
    <glyph glyph-name="datamanagement-fill" unicode="&#58949;" d="M0-32v192h1024v-192H0z m320 128H128v-64h192v64z m-320 384h1024v-192H0v192z m128-128h192v64H128v-64z m-128 448h1024v-192H0v192z m128-128h192v64H128v-64z"  horiz-adv-x="1024" />

    
    <glyph glyph-name="datacollection-fill" unicode="&#58950;" d="M448-32v384H320v-320H128v-64H0v192h128v-64h128v256H128v-64H0v192h128v-64h128v256H128v-64H0v192h128v-64h192v-320h128v384h576v-832H448z m448 704H576v-128h320v128z m0-256H576v-128h320v128z"  horiz-adv-x="1024" />

    
    <glyph glyph-name="datascreen-fil" unicode="&#58951;" d="M0 0V768h1024v-768H0zM896 640H128v-512h768m-512 64H256V448h128v-256z m192 0H448V576h128v-384z m192 0h-128V384h128v-192z"  horiz-adv-x="1024" />

    
    <glyph glyph-name="save-fill" unicode="&#58952;" d="M0-128V896h728.502857L1024 606.427429V-128H0zM877.714286 603.428571h-146.285715V749.714286H146.285714v-438.857143h731.428572V603.428571zM219.428571 603.428571h365.714286v-73.142857H219.428571V603.428571z"  horiz-adv-x="1024" />

    
    <glyph glyph-name="sjbb-fill" unicode="&#58953;" d="M0-128V896h1339.076923v-1024H0z m945.230769 118.153846h275.692308v236.307692h-275.692308v-236.307692z m-433.230769 0h315.076923v236.307692h-315.076923v-236.307692z m0 354.461539h315.076923V580.923077h-315.076923v-236.307692zM118.153846-9.846154h275.692308v236.307692H118.153846v-236.307692z m0 354.461539h275.692308V580.923077H118.153846v-236.307692z m827.076923 236.307692v-236.307692h275.692308V580.923077h-275.692308z"  horiz-adv-x="1339" />

    
    <glyph glyph-name="sjtb-fill" unicode="&#58954;" d="M118.153846-128H0V896h118.153846v-905.846154h1220.923077v-118.153846H118.153846z m905.846154 551.384615h118.153846v-354.461538h-118.153846v354.461538z m-354.461538 275.692308h118.153846v-630.153846h-118.153846V699.076923z m-354.461539-196.923077h118.153846v-433.230769H315.076923V502.153846z"  horiz-adv-x="1339" />

    
    <glyph glyph-name="text-fill" unicode="&#58955;" d="M630.153846 777.846154v-905.846154h-118.153846V777.846154H0V896h1102.769231v-118.153846H630.153846z"  horiz-adv-x="1102" />

    
    <glyph glyph-name="dwbb-fill" unicode="&#58956;" d="M887.677831 556.393071a125.744165 125.744165 0 0 0-72.42646 23.000557l-153.414886-122.708558a165.01246 165.01246 0 0 0 3.035607-130.531083l153.453804-127.884657a131.542952 131.542952 0 1 0-50.593443-67.561705l-152.831116 127.378722a165.051378 165.051378 0 0 0-168.242657-26.970197l-127.884657-153.453804a131.542952 131.542952 0 1 0-67.561705 50.593443l127.378722 152.831116a164.778952 164.778952 0 0 0-15.100197 191.788067L183.027924 653.337891a127.690067 127.690067 0 1 0 59.622427 59.622427l180.462919-180.46292a164.895706 164.895706 0 0 0 185.833608-10.235442l157.656952 126.133345a124.537706 124.537706 0 0 0-5.370689 34.442459 126.483607 126.483607 0 1 0 126.44469-126.444689z"  horiz-adv-x="1036" />

    
    <glyph glyph-name="refresh-fill" unicode="&#58957;" d="M662.187 581.973l-40.96-54.613 225.28-20.48-68.267 218.453-54.613-68.266c-61.44 40.96-129.707 68.266-204.8 68.266-191.147 0-341.334-157.013-341.334-341.333 0-191.147 157.014-341.333 341.334-341.333 143.36 0 273.066 88.746 320.853 218.453 6.827 13.653 6.827 27.307 0 34.133-6.827 13.654-13.653 20.48-27.307 27.307-27.306 6.827-54.613 0-61.44-27.307C716.8 199.68 621.227 138.24 518.827 138.24c-136.534 0-245.76 109.227-245.76 245.76s109.226 245.76 245.76 245.76c54.613 0 102.4-13.653 143.36-47.787"  horiz-adv-x="1024" />

    
    <glyph glyph-name="square-fill" unicode="&#58958;" d="M62.086 833.402h898.462V-65.06H62.086V833.402zM126.554 769.957h767.48v-767.48h-767.48v767.48zM259.584 645.114H756.91v-497.327H259.584V645.114z"  horiz-adv-x="1024" />

    
    <glyph glyph-name="bold-fill" unicode="&#58959;" d="M181.915 713.05c-0.646 12.671-1.422 25.083-2.198 40.986 15.386 0 30.643-0.258 45.77 0 118.82 2.716 237.64 6.336 356.59 7.758 62.448 0.776 120.5-15.774 169.89-58.7 46.805-40.726 65.423-127.353 37.884-183.983-16.938-34.909-47.192-54.69-79.128-71.887-11.507-6.077-23.272-11.765-36.978-18.747 15.257-5.43 28.316-9.31 40.728-14.481 42.537-17.842 79.903-43.83 104.08-85.204 34.134-58.7 29.35-120.372 4.784-181.269-24.565-60.767-73.438-91.28-129.68-112.485-53.398-20.04-108.865-24.177-164.72-21.333-108.864 5.56-217.47-1.81-325.947-8.275-7.37-0.388-14.74 0-22.885 0v45.382c19.782 4.008 39.305 8.146 58.958 12.154 1.293 0.258 2.585 0.258 3.878 0.646 31.03 7.5 32.065 8.016 36.72 42.02 2.715 20.3 4.396 40.857 4.396 61.414 0.258 81.455 0.387 163.039-0.905 244.493-1.293 86.497-4.009 172.994-6.336 259.362-0.646 23.402-2.715 26.376-25.212 30.901-23.014 4.655-46.028 7.499-69.689 11.249z m316.897-320.129c-19.394-1.293-35.555-2.586-51.717-3.361-10.085-0.518-14.093-4.396-14.093-15.903 0.259-75.508-0.646-151.015-0.388-226.522 0.13-19.652 2.974-39.305 4.267-59.087 0.646-9.826 5.818-13.963 13.963-17.195 47.968-18.748 95.807-13.964 142.87 2.715 41.76 14.868 70.98 44.864 80.807 90.375 5.818 26.505 8.016 54.562 7.24 81.843-1.939 71.37-53.268 130.198-120.63 140.541-21.592 3.233-43.571 4.655-62.319 6.594z m-66.974 52.752c6.594-1.552 10.473-3.233 14.223-3.103 35.814 1.422 71.886 1.422 107.442 5.3 24.566 2.716 47.063 14.482 64.776 33.617 21.075 22.626 28.574 51.2 31.547 81.325 5.43 54.562-11.248 103.047-63.612 128.13-34.521 16.549-70.465 21.333-107.442 20.557-16.42-0.388-32.711-3.362-46.934-5.042v-260.784z m0 0"  horiz-adv-x="1024" />

    
    <glyph glyph-name="italics-fill" unicode="&#58960;" d="M775.373 809.574l-10.445-50.176h-15.77c-38.092 0-65.33-7.168-82.124-21.504-16.794-14.336-27.853-35.635-33.792-64.102l-123.29-584.5c-3.482-16.793-5.325-27.852-5.325-33.177 0-31.744 28.672-47.718 86.221-47.718h15.155l-10.445-49.971h-346.93l9.215 49.97h15.77c65.945 0 105.062 28.468 116.94 85.607l124.11 584.5c3.071 14.745 4.71 25.804 4.71 33.177 0 31.744-28.672 47.718-86.221 47.718h-15.155l10.445 50.176h346.93z"  horiz-adv-x="1024" />

    
    <glyph glyph-name="shoucang" unicode="&#58961;" d="M327.728 91.699l150.605 60.966 33.721 13.628 33.721-13.628 150.61-60.914-4.485 166.562-0.907 32.986 20.663 25.711 96.564 120.353-155.377 47.062-30.031 9.082-17.826 25.717-92.932 134.033-92.87-134.033-17.827-25.717-30.033-9.082-155.49-47.12L312.4 317.01l20.664-25.711-0.908-32.986-4.428-166.614M789.94-43.13L512.054 69.273l-277.88-112.402 8.115 303.886L62.39 484.824l282.88 85.667 166.784 240.64 166.844-240.64 282.712-85.667-179.844-224.068 8.174-303.885z"  horiz-adv-x="1024" />

    
    <glyph glyph-name="piechart-fill" unicode="&#58962;" d="M548.144463 419.008547V895.931624a511.179487 511.179487 0 0 0 475.350427-476.923077H548.144463z m-68.376069-545.299145A512.205128 512.205128 0 0 0 479.768394 895.931624v-1022.222222z m34.188034-1.709402z m509.538462 478.632479A511.179487 511.179487 0 0 0 548.144463-126.290598V350.632479h475.350427z"  horiz-adv-x="1024" />

    
    <glyph glyph-name="columnchart-fill" unicode="&#58963;" d="M128-128H0V896h128v-896h896v-128H128zM768 704h128v-576h-128V704zM576 448h128v-320H576V448zM384 512h128v-384H384V512zM192 320h128v-192H192V320z"  horiz-adv-x="1024" />

    
    <glyph glyph-name="diagram-fill" unicode="&#58964;" d="M128-128H0V896h128v-896h896v-128H128zM941.12 514.624l-114.048-266.112A94.72 94.72 0 0 0 832 224a96 96 0 1 0-166.4 64L557.184 450.56a89.6 89.6 0 0 0-13.12-2.624 93.376 93.376 0 0 0-25.6 5.12L429.312 341.568a93.504 93.504 0 0 0 18.496-53.632 96 96 0 1 0-96 96 93.376 93.376 0 0 0 25.6-5.12L466.56 490.304A93.504 93.504 0 0 0 448 544a96 96 0 0 0 192 0 94.784 94.784 0 0 0-25.6-64l108.416-162.624A89.6 89.6 0 0 0 736 320a94.016 94.016 0 0 0 46.272-13.504l95.104 221.952A94.528 94.528 0 0 0 832 608a96 96 0 0 0 192 0 94.848 94.848 0 0 0-82.88-93.376z"  horiz-adv-x="1024" />

    
    <glyph glyph-name="add-fill" unicode="&#58965;" d="M1024 320H576v-448H448V320H0V448h448V896h128v-448h448v-128z"  horiz-adv-x="1024" />

    
    <glyph glyph-name="icon_hbase" unicode="&#58881;" d="M512-128a512 512 0 1 0 512 512 512 512 0 0 0-512-512z m219.428571 512V603.428571H658.285714v-146.285714H365.714286V603.428571H292.571429v-438.857142h73.142857V384h292.571428v-219.428571h73.142857V384z"  horiz-adv-x="1024" />

    
    <glyph glyph-name="icon_mysql" unicode="&#58882;" d="M512-128a512 512 0 1 0 512 512 512 512 0 0 0-512-512z m219.428571 731.428571H658.285714v-34.962285l-30.573714 7.314285-113.737143-307.2L405.942857 591.579429 365.714286 578.121143V603.428571H292.571429v-438.857142h73.142857V480.621714l99.693714-297.910857 43.373714 14.628572 56.100572-12.8L658.285714 436.955429V164.571429h73.142857V603.428571z"  horiz-adv-x="1024" />

    
    <glyph glyph-name="icon_system" unicode="&#58883;" d="M512-128a512 512 0 1 0 512 512 512 512 0 0 0-512-512z m152.722286 715.922286L597.211429 632.685714l-67.510858 44.763429-42.569142-71.021714L402.285714 464.457143l-67.510857 44.763428-42.496-71.094857 135.021714-89.526857-127.634285-213.065143 67.510857-44.763428 127.634286 213.065143 16.530285-10.898286 51.2-33.865143 67.510857-44.763429 42.496 71.094858-67.510857 44.763428 127.634286 213.138286z m-109.714286-26.258286l67.510857-44.763429-85.065143-142.043428-67.510857 44.763428z"  horiz-adv-x="1024" />

    
    <glyph glyph-name="arrow" unicode="&#58969;" d="M507.273846 896L905.846154 423.384615H118.153846zM354.461538 423.384615h315.076924v-472.615384a78.769231 78.769231 0 0 0-78.769231-78.769231H433.230769a78.769231 78.769231 0 0 0-78.769231 78.769231V423.384615z"  horiz-adv-x="1024" />

    
    <glyph glyph-name="line" unicode="&#58966;" d="M0 173.176471V594.823529h1807.058824v-421.647058H0zM0 896h1807.058824v-60.235294H0V896z m1807.058824-1024H0v60.235294h1807.058824v-60.235294z"  horiz-adv-x="1807" />

    
    <glyph glyph-name="classification" unicode="&#58967;" d="M910.222222-128v455.111111h796.444445v-455.111111H910.222222z m0 1024h796.444445v-455.111111H910.222222V896zM0 327.111111h796.444444v-455.111111H0v455.111111zM0 896h796.444444v-455.111111H0V896z"  horiz-adv-x="1706" />

    
    <glyph glyph-name="form" unicode="&#58968;" d="M481.882353-128v180.705882h1325.176471v-180.705882H481.882353zM481.882353 474.352941h1325.176471v-180.705882H481.882353V474.352941z m0 421.647059h1325.176471v-180.705882H481.882353V896zM0 52.705882h361.411765v-180.705882H0v180.705882z m0 421.647059h361.411765v-180.705882H0V474.352941z m0 421.647059h361.411765v-180.705882H0V896z"  horiz-adv-x="1807" />

    
    <glyph glyph-name="successful" unicode="&#58970;" d="M512-128a512 512 0 1 0 512 512 512 512 0 0 0-512-512z m284.452571 677.888a73.142857 73.142857 0 0 1-103.424 0L434.395429 291.254857 330.971429 394.678857a73.142857 73.142857 0 0 1-103.424-103.424l155.136-155.136a73.142857 73.142857 0 0 1 103.424 0l310.345142 310.345143a73.142857 73.142857 0 0 1 0 103.424z"  horiz-adv-x="1024" />

    
    <glyph glyph-name="task" unicode="&#58971;" d="M630.153846-128V187.076923h236.307692V344.615385H315.076923v-157.538462h236.307692v-315.076923H0V187.076923h236.307692V423.384615h315.076923V580.923077H315.076923V896h551.384615v-315.076923H630.153846v-157.538462h315.076923v-236.307692h236.307693v-315.076923H630.153846z"  horiz-adv-x="1181" />

    
    <glyph glyph-name="run" unicode="&#58972;" d="M0-128V151.272727h1303.272727v-279.272727H0z m1210.181818 186.181818H744.727273v-93.090909h465.454545V58.181818zM0 523.636364h1303.272727v-279.272728H0V523.636364z m372.363636-186.181819h837.818182V430.545455H372.363636v-93.09091zM0 896h1303.272727v-279.272727H0V896z m930.909091-186.181818h279.272727V802.909091h-279.272727v-93.090909z"  horiz-adv-x="1303" />

    
    <glyph glyph-name="dashboard" unicode="&#58973;" d="M1183.564465-128H117.787611a650.65742 650.65742 0 1 0 1065.776854 0zM185.920738 243.80424a92.95106 92.95106 0 1 1 92.95106 92.95106 92.95106 92.95106 0 0 1-92.95106-92.95106z m267.327249 328.024291a92.95106 92.95106 0 1 1 0-131.432799 92.95106 92.95106 0 0 1 0 131.432799z m196.591492 135.894449a92.95106 92.95106 0 1 1 92.95106-92.95106 92.95106 92.95106 0 0 1-92.95106 92.95106z m328.02429-135.894449a92.95106 92.95106 0 1 1 0-131.432799 92.95106 92.95106 0 0 1 0 131.432799zM1020.807159 336.7553a92.95106 92.95106 0 1 1 92.95106-92.95106 92.95106 92.95106 0 0 1-92.95106 92.95106z"  horiz-adv-x="1303" />

    
    <glyph glyph-name="upload" unicode="&#58974;" d="M0-128V213.333333h170.666667v-170.666666h853.333333V213.333333h170.666667v-341.333333H0z m682.666667 256H512V554.666667H256l336.469333 341.333333L938.666667 554.666667H682.666667v-426.666667z"  horiz-adv-x="1194" />

    
    <glyph glyph-name="folder-fill1" unicode="&#58975;" d="M0 896h440.206222l170.666667-151.703704H1289.481481v-872.296296H0V896z"  horiz-adv-x="1289" />

    
    <glyph glyph-name="folder-bell" unicode="&#58976;" d="M0-128V896h440.206222l170.666667-151.703704H1289.481481v-872.296296H0zM1213.62963 668.444444H572.681481l-170.666666 151.703704H75.851852v-872.296296h1137.777778V668.444444z"  horiz-adv-x="1289" />

    
    <glyph glyph-name="job" unicode="&#58977;" d="M0-128V151.272727h1303.272727v-279.272727H0z m93.090909 93.090909h651.636364V58.181818H93.090909v-93.090909z m1117.090909 93.090909h-186.181818v-93.090909h186.181818V58.181818zM0 523.636364h1303.272727v-279.272728H0V523.636364z m1210.181818-186.181819V430.545455h-186.181818v-93.09091h186.181818zM93.090909 337.454545h651.636364V430.545455H93.090909v-93.09091zM0 896h1303.272727v-279.272727H0V896z m1210.181818-93.090909h-186.181818v-93.090909h186.181818V802.909091zM93.090909 709.818182h651.636364V802.909091H93.090909v-93.090909z"  horiz-adv-x="1303" />

    
    <glyph glyph-name="EKI" unicode="&#58978;" d="M512-128a512 512 0 1 0 512 512 512 512 0 0 0-512-512z m219.428571 292.571429H365.714286V310.857143h365.714285V384H365.714286V530.285714h365.714285V603.428571H292.571429v-512h438.857142v73.142858z"  horiz-adv-x="1024" />

    
    <glyph glyph-name="pie" unicode="&#58979;" d="M578.512056 450.511771V895.614685a512.404581 512.404581 0 0 0 443.561654-445.102914H578.512056z m-128.438296-128.438295h573.541209A513.753183 513.753183 0 1 0 450.07376 895.614685v-573.541209z"  horiz-adv-x="1024" />

    
    <glyph glyph-name="histogram" unicode="&#58980;" d="M128-128H0V896h128v-896h896v-128H128zM768 704h128v-576h-128V704zM576 448h128v-320H576V448zM384 512h128v-384H384V512zM192 320h128v-192H192V320z"  horiz-adv-x="1024" />

    
    <glyph glyph-name="map" unicode="&#58981;" d="M685.056-128L481.645714 224.329143 1170.285714 621.933714V-128H685.056z m0 1024H1170.285714v-105.179429l-318.390857-183.808z m126.317714-312.393143L0 115.2V896h516.169143l209.042286-362.130286zM516.169143-128H0v74.24l354.962286 204.8z"  horiz-adv-x="1170" />

    
    <glyph glyph-name="proportion" unicode="&#58982;" d="M0-64v192h1024v-192H0z m960 128h-192v-64h192v64zM0 640h1024v-192H0V640z m512-128h448V576H512v-64zM0 832h448v-128H0V832z m320-640H0V320h320v-128z"  horiz-adv-x="1024" />

    
    <glyph glyph-name="linechart" unicode="&#58983;" d="M128-128H0V896h128v-896h896v-128H128zM928 512c-1.344 0-2.496 0.704-3.84 0.768l-124.544-217.984A95.04 95.04 0 0 0 832 224a96 96 0 1 0-166.4 64L557.184 450.56a89.6 89.6 0 0 0-13.12-2.624 93.376 93.376 0 0 0-25.6 5.12L429.312 341.568a93.504 93.504 0 0 0 18.496-53.632 96 96 0 1 0-96 96 93.376 93.376 0 0 0 25.6-5.12L466.56 490.304A93.504 93.504 0 0 0 448 544a96 96 0 0 0 192 0 94.784 94.784 0 0 0-25.6-64l108.416-162.624A89.6 89.6 0 0 0 736 320c1.344 0 2.496-0.704 3.84-0.768l124.544 217.984A95.04 95.04 0 0 0 832 608 96 96 0 1 0 928 512z"  horiz-adv-x="1024" />

    
    <glyph glyph-name="K" unicode="&#58984;" d="M512-128a512 512 0 1 0 512 512 512 512 0 0 0-512-512z m192 768H576L384 448V640H320v-512h64V320l192-192h128L448 384z"  horiz-adv-x="1024" />

    
    <glyph glyph-name="I" unicode="&#58985;" d="M512-128a512 512 0 1 0 512 512 512 512 0 0 0-512-512z m192 320H576V576h128V640H384v-64h128v-384H384v-64h320v64z"  horiz-adv-x="1024" />

    


  </font>
</defs>
</svg>
